# Blender v3.0.0 OBJ File: 'Epicc_Ramps_Pack.blend'
# www.blender.org
mtllib Rampa_A1-2.mtl
o Rampa_A1-2_Cube.018
v -1.000000 0.000000 -2.000000
v -1.000000 0.232205 1.017836
v 1.000000 0.000000 -2.000000
v 1.000000 0.231714 1.017681
v -1.000000 1.167586 -0.749173
v 1.000000 1.167586 -0.749173
v -1.000000 0.013996 1.998174
v 1.000000 0.013996 1.998174
v -1.000000 0.614956 0.088975
v 1.000000 0.614957 0.088976
v 1.000000 1.880784 -1.456495
v -1.000000 1.880784 -1.456495
v -1.000000 1.508811 -1.119250
v 1.000000 1.508811 -1.119250
v 1.000000 2.281312 -1.757985
v -1.000000 2.281311 -1.757986
v -1.000000 0.865850 -0.347021
v 1.000000 0.865850 -0.347021
v 1.000000 0.403976 0.545567
v -1.000000 0.403977 0.545568
v -1.000000 0.100479 1.503170
v 1.000000 0.100474 1.503171
v -1.000000 0.050919 1.749792
v 1.000000 0.050929 1.749796
v -1.000000 0.161889 1.259139
v 1.000000 0.161781 1.259106
v 1.000000 0.313004 0.779860
v -1.000000 0.313112 0.779894
v -1.000000 0.505512 0.315660
v 1.000000 0.505523 0.315663
v 1.000000 0.735377 -0.131870
v -1.000000 0.735377 -0.131870
v -1.000000 1.010051 -0.552963
v 1.000000 1.010051 -0.552963
v -1.000000 1.333895 -0.937910
v 1.000000 1.333895 -0.937910
v 1.000000 1.690186 -1.293329
v -1.000000 1.690186 -1.293329
v -1.000000 2.078154 -1.611316
v 1.000000 2.078154 -1.611316
v 1.000000 2.486544 -1.901404
v -1.000000 2.486540 -1.901409
v -1.000000 2.625170 -2.000000
v 1.000000 2.625233 -2.000000
v 1.000000 0.000000 2.139481
v -1.000000 0.000000 2.139480
v 0.900000 0.000000 -2.000000
v 0.900000 0.231738 1.017689
v 0.900000 0.614957 0.088976
v 0.900000 1.880784 -1.456495
v 0.900000 2.281312 -1.757985
v 0.900000 0.865850 -0.347021
v 0.900000 0.403976 0.545567
v 0.900000 1.690186 -1.293329
v 0.900000 2.486544 -1.901404
v 0.900000 2.625230 -2.000000
v 0.900000 0.313010 0.779861
v 0.900000 0.050928 1.749796
v 0.900000 1.167586 -0.749173
v 0.900000 0.013996 1.998174
v 0.900000 1.508811 -1.119250
v 0.900000 0.100474 1.503171
v 0.900000 0.161786 1.259108
v 0.900000 1.333895 -0.937910
v 0.900000 2.078154 -1.611316
v 0.900000 0.000000 2.139481
v 0.900000 0.505523 0.315663
v 0.900000 0.735377 -0.131870
v 0.900000 1.010051 -0.552963
v -0.905000 1.880784 -1.456495
v -0.905000 2.281311 -1.757986
v -0.905000 0.403977 0.545568
v -0.905000 1.690186 -1.293329
v -0.905000 2.486540 -1.901408
v -0.905000 0.313107 0.779893
v -0.905000 0.000000 2.139480
v -0.905000 0.735377 -0.131870
v -0.905000 0.000000 -2.000000
v -0.905000 0.232182 1.017828
v -0.905000 0.614956 0.088975
v -0.905000 0.865850 -0.347021
v -0.905000 2.625173 -2.000000
v -0.905000 0.050919 1.749793
v -0.905000 1.167586 -0.749173
v -0.905000 0.013996 1.998174
v -0.905000 1.508811 -1.119250
v -0.905000 0.100479 1.503170
v -0.905000 0.161884 1.259138
v -0.905000 1.333895 -0.937910
v -0.905000 2.078154 -1.611316
v -0.905000 0.505513 0.315661
v -0.905000 1.010051 -0.552963
v 0.900001 0.285619 1.051598
v 1.000001 0.285594 1.051590
v 0.900001 0.668838 0.122885
v 1.000001 0.668838 0.122885
v -0.904999 1.934664 -1.422586
v -0.999999 1.934664 -1.422586
v -0.904999 2.335192 -1.724077
v -0.999999 2.335192 -1.724077
v 0.900001 0.919731 -0.313112
v 1.000001 0.919731 -0.313112
v -0.904999 0.457857 0.579477
v -0.999999 0.457857 0.579477
v 1.000001 0.366885 0.813768
v 1.000001 0.067877 2.032083
v 1.000001 0.104810 1.783705
v -0.999999 0.286086 1.051745
v -0.999999 0.215770 1.293048
v 1.000001 0.215662 1.293015
v 1.000001 0.457857 0.579476
v -0.999999 0.366993 0.813803
v -0.999999 0.668837 0.122884
v -0.999999 0.559393 0.349569
v 1.000001 0.559404 0.349572
v 1.000001 0.789258 -0.097961
v -0.999999 0.789258 -0.097961
v -0.999999 0.919731 -0.313112
v -0.999999 1.063932 -0.519054
v 1.000001 1.221467 -0.715264
v 1.000001 1.063932 -0.519054
v 1.000001 1.387776 -0.904001
v 1.000001 1.934665 -1.422586
v 1.000001 1.744067 -1.259420
v -0.904999 1.744066 -1.259420
v -0.999999 1.744066 -1.259420
v 1.000001 2.335192 -1.724076
v 1.000001 2.132034 -1.577407
v 1.000001 2.540425 -1.867495
v -0.904999 2.540421 -1.867499
v -0.999999 2.540421 -1.867500
v 0.900001 2.679111 -1.966091
v 1.000001 2.679114 -1.966091
v 1.000001 0.053881 2.173389
v -0.904999 0.366988 0.813802
v 1.000001 1.562692 -1.085341
v 1.000001 0.154355 1.537080
v 0.900001 0.104809 1.783705
v 0.900001 1.221467 -0.715264
v 0.900001 0.067877 2.032083
v 0.900001 1.562692 -1.085341
v 0.900001 0.154355 1.537080
v -0.999999 0.067876 2.032083
v -0.999999 0.104800 1.783701
v -0.999999 0.154360 1.537079
v 0.900001 0.215667 1.293017
v -0.999999 1.221467 -0.715264
v -0.999999 1.387776 -0.904001
v 0.900001 1.387776 -0.904001
v -0.999999 2.132034 -1.577407
v 0.900001 2.132034 -1.577407
v -0.999999 2.679050 -1.966091
v -0.904999 0.053881 2.173388
v -0.999999 0.053881 2.173388
v 0.900001 0.559404 0.349572
v -0.999999 1.562691 -1.085341
v -0.904999 0.789258 -0.097961
v 0.900001 1.063932 -0.519054
v 0.900001 1.934665 -1.422586
v 0.900001 2.335192 -1.724076
v 0.900001 0.457857 0.579476
v 0.900001 1.744067 -1.259420
v 0.900001 2.540424 -1.867495
v 0.900001 0.366890 0.813770
v 0.900001 0.053881 2.173389
v 0.900001 0.789258 -0.097961
v -0.904999 0.286063 1.051737
v -0.904999 0.668837 0.122884
v -0.904999 0.919731 -0.313112
v -0.904999 2.679053 -1.966091
v -0.904999 0.104800 1.783702
v -0.904999 1.221467 -0.715264
v -0.904999 0.067876 2.032083
v -0.904999 1.562691 -1.085341
v -0.904999 0.154359 1.537079
v -0.904999 0.215765 1.293047
v -0.904999 1.387776 -0.904001
v -0.904999 2.132034 -1.577407
v -0.904999 0.559393 0.349569
v -0.904999 1.063932 -0.519054
vt 0.375000 0.250000
vt 0.375000 0.043026
vt 0.376250 0.050091
vt 0.379546 0.062510
vt 0.383971 0.074841
vt 0.389454 0.087043
vt 0.395733 0.099108
vt 0.402956 0.111005
vt 0.411069 0.122722
vt 0.420135 0.134217
vt 0.429907 0.145551
vt 0.440659 0.156594
vt 0.452308 0.167351
vt 0.465183 0.177648
vt 0.479249 0.187459
vt 0.494098 0.196896
vt 0.509715 0.205962
vt 0.525909 0.214666
vt 0.542927 0.222825
vt 0.560549 0.230566
vt 0.578689 0.237899
vt 0.597013 0.245070
vt 0.609390 0.250000
vt 0.609390 0.261875
vt 0.375000 0.261875
vt 0.376250 0.699909
vt 0.375000 0.706974
vt 0.375000 0.500000
vt 0.609396 0.500000
vt 0.597013 0.504930
vt 0.578689 0.512101
vt 0.560549 0.519434
vt 0.542927 0.527175
vt 0.525909 0.535334
vt 0.509715 0.544037
vt 0.494098 0.553104
vt 0.479249 0.562541
vt 0.465183 0.572352
vt 0.452308 0.582649
vt 0.440659 0.593407
vt 0.429907 0.604449
vt 0.420136 0.615783
vt 0.411069 0.627278
vt 0.402947 0.638993
vt 0.395689 0.650884
vt 0.389445 0.662955
vt 0.383971 0.675159
vt 0.379547 0.687490
vt 0.362500 0.706974
vt 0.362500 0.500000
vt 0.560549 0.230566
vt 0.578689 0.237899
vt 0.625000 0.487500
vt 0.625000 0.487500
vt 0.625000 0.487500
vt 0.625000 0.487500
vt 0.420136 0.615783
vt 0.411069 0.627278
vt 0.625000 0.261875
vt 0.625000 0.261875
vt 0.625000 0.261875
vt 0.625000 0.261875
vt 0.625000 0.487500
vt 0.625000 0.487500
vt 0.625000 0.487500
vt 0.625000 0.487500
vt 0.420135 0.134217
vt 0.429907 0.145551
vt 0.625000 0.261875
vt 0.625000 0.261875
vt 0.625000 0.261875
vt 0.625000 0.261875
vt 0.609396 0.500000
vt 0.597013 0.504930
vt 0.509715 0.205962
vt 0.525909 0.214666
vt 0.395733 0.099108
vt 0.402956 0.111005
vt 0.625000 0.261875
vt 0.625000 0.261875
vt 0.625000 0.261875
vt 0.625000 0.261875
vt 0.465183 0.572352
vt 0.452308 0.582649
vt 0.375000 0.043026
vt 0.376250 0.050091
vt 0.402947 0.638993
vt 0.625000 0.261875
vt 0.625000 0.261875
vt 0.625000 0.261875
vt 0.625000 0.261875
vt 0.389445 0.662955
vt 0.383971 0.675159
vt 0.379546 0.062510
vt 0.383971 0.074841
vt 0.395689 0.650884
vt 0.625000 0.261875
vt 0.625000 0.261875
vt 0.625000 0.261875
vt 0.625000 0.261875
vt 0.411069 0.122722
vt 0.494098 0.196896
vt 0.625000 0.487500
vt 0.625000 0.487500
vt 0.625000 0.261875
vt 0.625000 0.487500
vt 0.625000 0.487500
vt 0.375000 0.706974
vt 0.362500 0.706974
vt 0.625000 0.261875
vt 0.625000 0.487500
vt 0.625000 0.487500
vt 0.625000 0.261875
vt 0.625000 0.487500
vt 0.625000 0.487500
vt 0.625000 0.261875
vt 0.625000 0.261875
vt 0.625000 0.487500
vt 0.625000 0.487500
vt 0.593750 0.261875
vt 0.562500 0.261875
vt 0.562500 0.487500
vt 0.593750 0.487500
vt 0.531250 0.261875
vt 0.500000 0.261875
vt 0.500000 0.487500
vt 0.531250 0.487500
vt 0.625000 0.261875
vt 0.625000 0.487500
vt 0.389454 0.087043
vt 0.625000 0.487500
vt 0.625000 0.261875
vt 0.625000 0.487500
vt 0.136875 0.706974
vt 0.136875 0.500000
vt 0.375000 0.487500
vt 0.609395 0.487500
vt 0.125000 0.706974
vt 0.125000 0.500000
vt 0.625000 0.261875
vt 0.625000 0.261875
vt 0.379547 0.687490
vt 0.376250 0.699909
vt 0.625000 0.261875
vt 0.593750 0.261875
vt 0.525909 0.535334
vt 0.509715 0.544037
vt 0.136875 0.706974
vt 0.125000 0.706974
vt 0.593750 0.487500
vt 0.625000 0.487500
vt 0.440659 0.156594
vt 0.452308 0.167351
vt 0.625000 0.487500
vt 0.625000 0.487500
vt 0.625000 0.487500
vt 0.494098 0.553104
vt 0.597013 0.245070
vt 0.609390 0.250000
vt 0.468750 0.487500
vt 0.468750 0.487500
vt 0.468750 0.487500
vt 0.468750 0.487500
vt 0.560549 0.519434
vt 0.542927 0.527175
vt 0.625000 0.487500
vt 0.625000 0.487500
vt 0.625000 0.487500
vt 0.468750 0.261875
vt 0.468750 0.261875
vt 0.593750 0.500000
vt 0.625000 0.500000
vt 0.625000 0.500000
vt 0.625000 0.500000
vt 0.625000 0.500000
vt 0.625000 0.500000
vt 0.468750 0.261875
vt 0.468750 0.261875
vt 0.468750 0.250000
vt 0.468750 0.250000
vt 0.625000 0.500000
vt 0.625000 0.500000
vt 0.625000 0.500000
vt 0.625000 0.500000
vt 0.625000 0.487500
vt 0.625000 0.487500
vt 0.625000 0.500000
vt 0.625000 0.500000
vt 0.625000 0.500000
vt 0.625000 0.500000
vt 0.625000 0.487500
vt 0.625000 0.487500
vt 0.625000 0.500000
vt 0.625000 0.500000
vt 0.625000 0.487500
vt 0.625000 0.487500
vt 0.625000 0.500000
vt 0.625000 0.500000
vt 0.531250 0.487500
vt 0.531250 0.500000
vt 0.562500 0.500000
vt 0.562500 0.487500
vt 0.500000 0.487500
vt 0.500000 0.500000
vt 0.625000 0.250000
vt 0.625000 0.250000
vt 0.625000 0.261875
vt 0.468750 0.500000
vt 0.468750 0.500000
vt 0.593750 0.250000
vt 0.625000 0.250000
vt 0.625000 0.250000
vt 0.625000 0.250000
vt 0.625000 0.250000
vt 0.625000 0.250000
vt 0.625000 0.250000
vt 0.625000 0.250000
vt 0.625000 0.250000
vt 0.625000 0.250000
vt 0.625000 0.250000
vt 0.625000 0.250000
vt 0.625000 0.250000
vt 0.625000 0.250000
vt 0.625000 0.261875
vt 0.625000 0.250000
vt 0.625000 0.250000
vt 0.625000 0.261875
vt 0.625000 0.261875
vt 0.531250 0.250000
vt 0.531250 0.261875
vt 0.562500 0.261875
vt 0.562500 0.250000
vt 0.500000 0.250000
vt 0.500000 0.261875
vt 0.440659 0.593407
vt 0.465183 0.177648
vt 0.479249 0.562541
vt 0.429907 0.604449
vt 0.578689 0.512101
vt 0.609390 0.261875
vt 0.479249 0.187459
vt 0.609395 0.487500
vt 0.542927 0.222825
vn -1.0000 0.0000 0.0000
vn 0.0000 0.0000 -1.0000
vn 1.0000 0.0000 0.0000
vn 0.0000 -1.0000 0.0000
vn -0.0000 0.5728 0.8197
vn -0.0000 0.6172 0.7868
vn -0.0000 0.6924 0.7215
vn -0.0000 0.7503 0.6611
vn 0.0000 -0.5326 0.8463
vn -0.0000 0.8780 0.4787
vn -0.0000 0.9148 0.4040
vn 0.0002 0.9465 0.3227
vn 0.0000 0.9698 0.2438
vn -0.0000 0.9891 0.1471
vn -0.0000 0.9804 0.1970
vn 0.0000 0.9323 0.3617
vn 0.0000 0.8551 0.5185
vn -0.0000 0.5853 0.8108
vn -0.0000 0.7197 0.6942
vn -0.0000 0.6503 0.7597
vn -0.0000 0.9005 0.4348
vn -0.0000 0.5795 0.8150
vn 0.0000 0.7798 0.6261
vn 0.0002 0.9603 0.2790
vn 0.0000 0.8192 0.5736
vn -0.0000 0.9951 0.0986
vn 0.0002 0.9605 0.2783
vn -0.0000 0.5794 0.8150
vn -0.0000 0.9006 0.4347
vn 0.0000 0.9322 0.3619
vn 0.0000 0.9699 0.2436
vn 0.0002 0.9463 0.3234
vn -0.0000 0.9147 0.4040
vn 0.0002 0.9601 0.2797
vn -0.0000 0.5796 0.8149
vn 0.0000 0.9324 0.3615
vn -0.0000 0.9891 0.1470
vn 0.0000 0.9698 0.2440
vn 0.0002 0.9468 0.3220
vn -0.0000 0.5326 -0.8463
usemtl None
s off
f 1/1/1 46/2/1 7/3/1 23/4/1 21/5/1 25/6/1 2/7/1 28/8/1 20/9/1 29/10/1 9/11/1 32/12/1 17/13/1 33/14/1 5/15/1 35/16/1 13/17/1 38/18/1 12/19/1 39/20/1 16/21/1 42/22/1 43/23/1
f 82/24/2 78/25/2 1/1/2 43/23/2
f 8/26/3 45/27/3 3/28/3 44/29/3 41/30/3 15/31/3 40/32/3 11/33/3 37/34/3 14/35/3 36/36/3 6/37/3 34/38/3 18/39/3 31/40/3 10/41/3 30/42/3 19/43/3 27/44/3 4/45/3 26/46/3 22/47/3 24/48/3
f 66/49/4 47/50/4 3/28/4 45/27/4
f 16/21/1 39/20/1 150/51/1 100/52/1
f 65/53/1 50/54/1 159/55/1 151/56/1
f 19/43/3 30/42/3 115/57/3 111/58/3
f 90/59/3 71/60/3 99/61/3 178/62/3
f 55/63/1 51/64/1 160/65/1 163/66/1
f 9/11/1 29/10/1 114/67/1 113/68/1
f 89/69/3 86/70/3 174/71/3 177/72/3
f 41/30/3 44/29/3 133/73/3 129/74/3
f 38/18/1 13/17/1 156/75/1 126/76/1
f 28/8/1 2/7/1 108/77/1 112/78/1
f 73/79/3 70/80/3 97/81/3 125/82/3
f 18/39/3 34/38/3 121/83/3 102/84/3
f 7/3/1 46/2/1 154/85/1 143/86/1
f 27/44/3 19/43/3 111/58/3 105/87/3
f 91/88/3 80/89/3 168/90/3 179/91/3
f 22/47/3 26/46/3 110/92/3 137/93/3
f 21/5/1 23/4/1 144/94/1 145/95/1
f 26/46/3 4/45/3 94/96/3 110/92/3
f 74/97/3 82/98/3 170/99/3 130/100/3
f 29/10/1 20/9/1 104/101/1 114/67/1
f 13/17/1 35/16/1 148/102/1 156/75/1
f 74/97/5 71/60/5 51/64/5 55/63/5
f 90/59/6 70/80/6 50/54/6 65/53/6
f 73/79/7 86/70/7 61/103/7 54/104/7
f 89/69/8 84/105/8 59/106/8 64/107/8
f 66/49/9 45/27/9 134/108/9 165/109/9
f 77/110/10 80/89/10 49/111/10 68/112/10
f 91/88/11 72/113/11 53/114/11 67/115/11
f 75/116/12 79/117/12 48/118/12 57/119/12
f 88/120/13 87/121/13 62/122/13 63/123/13
f 83/124/14 85/125/14 60/126/14 58/127/14
f 83/124/15 58/127/15 62/122/15 87/121/15
f 72/113/16 75/116/16 57/119/16 53/114/16
f 81/128/17 77/110/17 68/112/17 52/129/17
f 71/60/18 90/59/18 65/53/18 51/64/18
f 86/70/19 89/69/19 64/107/19 61/103/19
f 70/80/20 73/79/20 54/104/20 50/54/20
f 80/89/21 91/88/21 67/115/21 49/111/21
f 2/7/1 25/6/1 109/130/1 108/77/1
f 82/98/22 74/97/22 55/63/22 56/131/22
f 84/105/23 92/132/23 69/133/23 59/106/23
f 88/120/24 63/123/24 48/118/24 79/117/24
f 76/134/4 78/135/4 47/50/4 66/49/4
f 44/29/2 3/28/2 47/136/2 56/137/2
f 46/138/4 1/139/4 78/135/4 76/134/4
f 92/132/3 84/105/3 172/140/3 180/141/3
f 20/9/1 28/8/1 112/78/1 104/101/1
f 8/26/3 24/48/3 107/142/3 106/143/3
f 88/120/3 79/117/3 167/144/3 176/145/3
f 14/35/3 37/34/3 124/146/3 136/147/3
f 46/138/9 76/134/9 153/148/9 154/149/9
f 48/118/1 63/123/1 146/150/1 93/151/1
f 4/45/3 27/44/3 105/87/3 94/96/3
f 17/13/1 32/12/1 117/152/1 118/153/1
f 59/106/1 69/133/1 158/154/1 139/155/1
f 24/48/3 22/47/3 137/93/3 107/142/3
f 56/131/1 55/63/1 163/66/1 132/156/1
f 36/36/3 14/35/3 136/147/3 122/157/3
f 43/23/1 42/22/1 131/158/1 152/159/1
f 60/160/1 66/161/1 165/162/1 140/163/1
f 11/33/3 40/32/3 128/164/3 123/165/3
f 42/22/1 16/21/1 100/52/1 131/158/1
f 49/111/1 67/115/1 155/166/1 95/167/1
f 50/54/1 54/104/1 162/168/1 159/55/1
f 69/133/25 92/132/25 81/128/25 52/129/25
f 66/161/26 60/160/26 85/169/26 76/170/26
f 56/137/2 47/136/2 78/25/2 82/24/2
f 146/150/27 110/171/27 94/172/27 93/151/27
f 139/155/23 158/154/23 121/173/23 120/174/23
f 132/156/28 163/66/28 129/175/28 133/176/28
f 153/177/26 173/178/26 143/179/26 154/180/26
f 95/167/29 155/166/29 115/181/29 96/182/29
f 159/55/20 162/168/20 124/183/20 123/184/20
f 141/185/19 149/186/19 122/187/19 136/188/19
f 160/65/18 151/56/18 128/189/18 127/190/18
f 101/191/17 166/192/17 116/193/17 102/194/17
f 161/195/30 164/196/30 105/197/30 111/198/30
f 138/199/15 107/200/15 137/201/15 142/202/15
f 138/199/14 140/203/14 106/204/14 107/200/14
f 146/150/31 142/202/31 137/201/31 110/171/31
f 164/196/32 93/151/32 94/172/32 105/197/32
f 155/166/33 161/195/33 111/198/33 115/181/33
f 166/192/10 95/167/10 96/182/10 116/193/10
f 180/141/25 119/205/25 118/206/25 169/207/25
f 149/186/8 139/155/8 120/174/8 122/187/8
f 162/168/7 141/185/7 136/188/7 124/183/7
f 151/56/6 159/55/6 123/184/6 128/189/6
f 163/66/5 160/65/5 127/190/5 129/175/5
f 121/173/25 158/154/25 101/191/25 102/194/25
f 134/208/26 106/209/26 140/163/26 165/162/26
f 109/210/34 176/145/34 167/144/34 108/211/34
f 147/212/23 119/205/23 180/141/23 172/140/23
f 152/213/35 131/214/35 130/100/35 170/99/35
f 113/215/21 114/216/21 179/91/21 168/90/21
f 98/217/20 126/218/20 125/82/20 97/81/20
f 156/219/19 148/220/19 177/72/19 174/71/19
f 100/221/18 150/222/18 178/62/18 99/61/18
f 118/206/17 117/223/17 157/224/17 169/207/17
f 104/225/36 112/226/36 135/227/36 103/228/36
f 144/229/15 171/230/15 175/231/15 145/232/15
f 144/229/37 143/233/37 173/234/37 171/230/37
f 109/210/38 145/232/38 175/231/38 176/145/38
f 112/226/39 108/211/39 167/144/39 135/227/39
f 114/216/11 104/225/11 103/228/11 179/91/11
f 117/223/10 113/215/10 168/90/10 157/224/10
f 148/220/8 147/212/8 172/140/8 177/72/8
f 126/218/7 156/219/7 174/71/7 125/82/7
f 150/222/6 98/217/6 97/81/6 178/62/6
f 131/214/5 100/221/5 99/61/5 130/100/5
f 77/110/3 81/128/3 169/207/3 157/224/3
f 31/40/3 18/39/3 102/84/3 116/235/3
f 54/104/1 61/103/1 141/185/1 162/168/1
f 75/116/3 72/113/3 103/228/3 135/227/3
f 32/12/1 9/11/1 113/68/1 117/152/1
f 64/107/1 59/106/1 139/155/1 149/186/1
f 83/124/3 87/121/3 175/231/3 171/230/3
f 33/14/1 17/13/1 118/153/1 119/236/1
f 69/133/1 52/129/1 101/191/1 158/154/1
f 85/125/3 83/124/3 171/230/3 173/234/3
f 34/38/3 6/37/3 120/237/3 121/83/3
f 68/112/1 49/111/1 95/167/1 166/192/1
f 23/4/1 7/3/1 143/86/1 144/94/1
f 87/121/3 88/120/3 176/145/3 175/231/3
f 6/37/3 36/36/3 122/157/3 120/237/3
f 67/115/1 53/114/1 161/195/1 155/166/1
f 25/6/1 21/5/1 145/95/1 109/130/1
f 79/117/3 75/116/3 135/227/3 167/144/3
f 37/34/3 11/33/3 123/165/3 124/146/3
f 57/119/1 48/118/1 93/151/1 164/196/1
f 72/113/3 91/88/3 179/91/3 103/228/3
f 63/123/1 62/122/1 142/202/1 146/150/1
f 30/42/3 10/41/3 96/238/3 115/57/3
f 80/89/3 77/110/3 157/224/3 168/90/3
f 40/32/3 15/31/3 127/239/3 128/164/3
f 82/24/40 43/23/40 152/159/40 170/240/40
f 58/127/1 60/126/1 140/203/1 138/199/1
f 10/41/3 31/40/3 116/235/3 96/238/3
f 84/105/3 89/69/3 177/72/3 172/140/3
f 15/31/3 41/30/3 129/74/3 127/239/3
f 62/122/1 58/127/1 138/199/1 142/202/1
f 5/15/1 33/14/1 119/236/1 147/241/1
f 86/70/3 73/79/3 125/82/3 174/71/3
f 53/114/1 57/119/1 164/196/1 161/195/1
f 35/16/1 5/15/1 147/241/1 148/102/1
f 70/80/3 90/59/3 178/62/3 97/81/3
f 52/129/1 68/112/1 166/192/1 101/191/1
f 71/60/3 74/97/3 130/100/3 99/61/3
f 44/29/40 56/137/40 132/242/40 133/73/40
f 51/64/1 65/53/1 151/56/1 160/65/1
f 12/19/1 38/18/1 126/76/1 98/243/1
f 81/128/3 92/132/3 180/141/3 169/207/3
f 45/27/3 8/26/3 106/143/3 134/108/3
f 61/103/1 64/107/1 149/186/1 141/185/1
f 39/20/1 12/19/1 98/243/1 150/51/1
f 76/170/3 85/169/3 173/178/3 153/177/3
