# Blender v3.0.0 OBJ File: 'Epicc_Ramps_Pack.blend'
# www.blender.org
mtllib Rampa_B1_Pt3.mtl
o Rampa_B1_Pt3_Cube.006
v -1.000000 0.000000 -0.800000
v -1.000000 1.000000 -0.800000
v 1.000000 0.000000 -0.800000
v 1.000000 1.000000 -0.800000
v -1.000000 0.000000 -2.772000
v 1.000000 0.000000 -2.772000
vt 0.875000 0.500000
vt 0.625000 0.500000
vt 0.625000 0.500000
vt 0.875000 0.500000
vt 0.375000 0.250000
vt 0.625000 0.250000
vt 0.375000 0.250000
vt 0.375000 0.500000
vt 0.125000 0.500000
vt 0.125000 0.500000
vt 0.375000 0.500000
vt 0.000000 0.000000
vt 0.000000 0.000000
vt 0.000000 0.000000
vt 0.000000 0.000000
vn 0.0000 0.8919 -0.4523
vn -1.0000 0.0000 0.0000
vn 1.0000 0.0000 0.0000
vn 0.0000 -1.0000 0.0000
vn 0.0000 0.0000 1.0000
usemtl None
s off
f 2/1/1 4/2/1 6/3/1 5/4/1
f 1/5/2 2/6/2 5/7/2
f 4/2/3 3/8/3 6/3/3
f 3/8/4 1/9/4 5/10/4 6/11/4
f 4/12/5 1/13/5 3/14/5
f 4/12/5 2/15/5 1/13/5
