# Blender v3.0.0 OBJ File: 'Epicc_Ramps_Pack.blend'
# www.blender.org
mtllib Rampa_B2_Pt2.mtl
o Rampa_B2_Pt2_Cube.014
v -1.000000 0.000000 0.800000
v -1.000000 1.000000 0.800000
v -1.000000 0.000000 -0.800000
v -1.000000 1.000000 -0.800000
v 1.000000 0.000000 0.800000
v 1.000000 1.000000 0.800000
v 1.000000 0.000000 -0.800000
v 1.000000 1.000000 -0.800000
v 0.900000 0.000000 -0.800000
v 0.900000 1.000000 -0.800000
v 0.900000 0.000000 0.800000
v 0.900000 1.000000 0.800000
v -0.905000 0.000000 -0.800000
v -0.905000 1.000000 0.800000
v -0.905000 1.000000 -0.800000
v -0.905000 0.000000 0.800000
v -1.000000 1.100000 0.800000
v -1.000000 1.100000 -0.800000
v 0.900000 1.100000 -0.800000
v 1.000000 1.100000 -0.800000
v 1.000000 1.100000 0.800000
v -0.905000 1.100000 0.800000
v 0.900000 1.100000 0.800000
v -0.905000 1.100000 -0.800000
vt 0.375000 0.000000
vt 0.625000 0.000000
vt 0.625000 0.250000
vt 0.375000 0.250000
vt 0.375000 0.487500
vt 0.625000 0.487500
vt 0.625000 0.500000
vt 0.375000 0.500000
vt 0.625000 0.750000
vt 0.375000 0.750000
vt 0.375000 0.988125
vt 0.625000 0.988125
vt 0.625000 1.000000
vt 0.375000 1.000000
vt 0.362500 0.500000
vt 0.362500 0.750000
vt 0.863125 0.750000
vt 0.863125 0.500000
vt 0.863125 0.500000
vt 0.863125 0.750000
vt 0.625000 0.500000
vt 0.625000 0.750000
vt 0.136875 0.500000
vt 0.136875 0.750000
vt 0.625000 0.762500
vt 0.375000 0.762500
vt 0.375000 0.261875
vt 0.625000 0.261875
vt 0.125000 0.500000
vt 0.125000 0.750000
vt 0.637500 0.500000
vt 0.637500 0.750000
vt 0.875000 0.500000
vt 0.875000 0.750000
vt 0.637500 0.500000
vt 0.637500 0.750000
vt 0.625000 0.762500
vt 0.625000 0.000000
vt 0.625000 0.250000
vt 0.625000 0.261875
vt 0.625000 0.988125
vt 0.625000 1.000000
vt 0.625000 0.487500
vn -1.0000 0.0000 0.0000
vn 0.0000 0.0000 -1.0000
vn 1.0000 0.0000 0.0000
vn 0.0000 0.0000 1.0000
vn 0.0000 -1.0000 0.0000
vn 0.0000 1.0000 0.0000
usemtl None
s off
f 1/1/1 2/2/1 4/3/1 3/4/1
f 9/5/2 10/6/2 8/7/2 7/8/2
f 7/8/3 8/7/3 6/9/3 5/10/3
f 16/11/4 14/12/4 2/13/4 1/14/4
f 9/15/5 7/8/5 5/10/5 11/16/5
f 14/17/3 15/18/3 24/19/3 22/20/3
f 6/9/3 8/7/3 20/21/3 21/22/3
f 13/23/5 9/15/5 11/16/5 16/24/5
f 5/10/4 6/9/4 12/25/4 11/26/4
f 13/27/2 15/28/2 10/6/2 9/5/2
f 3/4/2 4/3/2 15/28/2 13/27/2
f 3/29/5 13/23/5 16/24/5 1/30/5
f 10/31/6 15/18/6 14/17/6 12/32/6
f 11/26/4 12/25/4 14/12/4 16/11/4
f 24/19/6 18/33/6 17/34/6 22/20/6
f 20/21/6 19/35/6 23/36/6 21/22/6
f 12/25/4 6/9/4 21/22/4 23/37/4
f 4/3/1 2/2/1 17/38/1 18/39/1
f 15/28/2 4/3/2 18/39/2 24/40/2
f 2/13/4 14/12/4 22/41/4 17/42/4
f 10/31/1 12/32/1 23/36/1 19/35/1
f 8/7/2 10/6/2 19/43/2 20/21/2
